# This file uses centimeters as units for non-parametric coordinates.

mtllib tile2.mtl
g default
v 0.7715 -0.000000 1.228500000
v 1.228500000 -0.000000 1.228500000
v 0.7715 0.000000 0.7715
v 1.228500000 0.000000 0.7715
v 0.3145 0.000000 1.685500000
v 0.7715 0.000000 1.685500000
v 0.3145 0.000000 1.228500000
vt 0.000000 0.000000
vt 1.000000 0.000000
vt 0.000000 1.000000
vt 1.000000 1.000000
vn 0.000000 1.000000 0.000000
vn 0.000000 1.000000 0.000000
vn 0.000000 1.000000 0.000000
vn 0.000000 1.000000 0.000000
s off
g AndyBlobShadow_GEO
f 4/4/1 3/3/2 1/1/3 2/2/4
f 1/4/1 7/3/2 5/1/3 6/2/4
